
<svg width="80" height="80" viewBox="0 0 80 80" xmlns="http://www.w3.org/2000/svg">
  <defs>
    <linearGradient id="cfGrad" x1="0" y1="0" x2="1" y2="1">
      <stop offset="0" stop-color="#0052CC"/>
      <stop offset="1" stop-color="#00C4FF"/>
    </linearGradient>
  </defs>
  <rect x="6" y="6" width="68" height="68" rx="20" fill="#F4F6FF"/>
  <path d="M22 50C22 33 33 22 48 22C54 22 58.5 24.2 61 26.8L56.6 30.9C54.7 29 52 27.9 48.7 27.9C37.5 27.9 29 37.5 29 50H22Z" fill="url(#cfGrad)"/>
  <path d="M30 54C39.2 54 47 46.4 47 37.3H41.4C41.4 42.4 37.5 46.3 32.6 46.3C30.7 46.3 29 45.8 27.5 44.9L24.4 49C26.5 51.4 28.9 53 30 53.4V54Z" fill="#0052CC" opacity="0.96"/>
  <circle cx="55" cy="25.5" r="4" fill="#00C4FF"/>
</svg>
