<svg width="480" height="260" viewBox="0 0 480 260" xmlns="http://www.w3.org/2000/svg">
  <defs>
    <linearGradient id="heroBg" x1="0" y1="0" x2="1" y2="1">
      <stop offset="0" stop-color="#F5F8FF"/>
      <stop offset="1" stop-color="#E1EEFF"/>
    </linearGradient>
    <linearGradient id="heroPrimary" x1="0" y1="0" x2="1" y2="1">
      <stop offset="0" stop-color="#0052CC"/>
      <stop offset="1" stop-color="#00C4FF"/>
    </linearGradient>
  </defs>
  <rect width="480" height="260" rx="32" fill="url(#heroBg)"/>
  <rect x="36" y="40" width="150" height="90" rx="18" fill="#ffffff" opacity="0.98"/>
  <rect x="50" y="58" width="84" height="10" rx="5" fill="#E0EAFF"/>
  <rect x="50" y="80" width="64" height="10" rx="5" fill="#0052CC" opacity="0.9"/>
  <rect x="50" y="100" width="40" height="8" rx="4" fill="#E0EAFF"/>
  <rect x="194" y="40" width="250" height="40" rx="14" fill="#ffffff" opacity="0.98"/>
  <rect x="206" y="52" width="120" height="9" rx="4.5" fill="#0052CC" opacity="0.9"/>
  <rect x="336" y="52" width="84" height="9" rx="4.5" fill="#E0EAFF"/>
  <rect x="194" y="90" width="250" height="40" rx="16" fill="#ffffff"/>
  <rect x="206" y="104" width="80" height="8" rx="4" fill="#E0EAFF"/>
  <rect x="294" y="104" width="120" height="8" rx="4" fill="#0052CC" opacity="0.9"/>
  <rect x="36" y="150" width="190" height="70" rx="22" fill="#ffffff" opacity="0.98"/>
  <rect x="52" y="168" width="90" height="9" rx="4.5" fill="#0052CC" opacity="0.9"/>
  <rect x="52" y="186" width="60" height="7" rx="3.5" fill="#E0EAFF"/>
  <circle cx="210" cy="52" r="6" fill="#00C4FF"/>
  <circle cx="332" cy="146" r="38" fill="#ffffff"/>
  <path d="M312 148C312 135 322 125 335 125C342 125 348 128 351 132L347 135C345 132 341 130.5 337 130.5C325.5 130.5 317 139.3 317 149H312Z" fill="url(#heroPrimary)"/>
  <path d="M320 159C327.5 159 333.5 153 333.5 145.5H329C329 149.5 326 152.5 322 152.5C320.8 152.5 319.7 152.2 318.7 151.7L316.5 154.7C317.9 156 319.8 156.8 321 156.9V159Z" fill="#0052CC" opacity="0.9"/>
</svg>
